/* XPM */
static char * kelvin_on_xpm[] = {
"58 58 10 1",
" 	c None",
".	c #020202",
"+	c #0A0A0A",
"@	c #484C46",
"#	c #DEDEDE",
"$	c #779866",
"%	c #6EC63B",
"&	c #2E4C17",
"*	c #6CB237",
"=	c #3E463E",
"  ......................................................  ",
" .%%%%%%%%%%%%%%%%%%%%%%%%%%%%%%%%%%%%%%%%%%%%%%%%%%%%%%. ",
".%%%%%%%%%%%%%%%%%%%%%%%%%%%%%%%%%%%%%%%%%%%%%%%%%%%%%%%%#",
".%%%%%%%%%%%%%%%%%%%%%%%%%%%%%%%%%%%%%%%%%%%%%%%%%%%%%%%%#",
".%%%%%%%%%%%%%%%%%%%%%%%%%%%%%%%%%%%%%%%%%%%%%%%%%%%%%%%%#",
".%%%%%%%%%%%%%%%%%%%%%%%%%%%%%%%%%%%%%%%%%%%%%%%%&&&&&%%%#",
".%%%%%%%%%%%%%%%%%%%%%%%%%%%%%%%%%%%%%%%%%%%%%%%%&%%%%%%%#",
".%%%%%%******%%%%%%******%%%%%%******%%%%....%%%%&%%%%%%%#",
".%%%%*%%****%%*%%*%%****%%*%%*%%****%%*%%.%%.%%%%&&&&&%%%#",
".%%%%**%%%%%%**%%**%%%%%%**%%**%%%%%%**%%.%%.%%%%%%%%%%%%#",
".%%%%**%%%%%%**%%**%%%%%%**%%**%%%%%%**%%....%%%%&&&&&%%%#",
".%%%%**%%%%%%**%%**%%%%%%**%%**%%%%%%**%%%%%%%%%%&%%%&%%%#",
".%%%%**%%%%%%**%%**%%%%%%**%%**%%%%%%**%%%%%%%%%%&&&&&%%%#",
".%%%%**%%%%%%**%%**%%%%%%**%%**%%%%%%**%%%%%%%%%%&%%%%%%%#",
".%%%%**%%%%%%**%%**%%%%%%**%%**%%%%%%**%%%%%%%%%%&%%%%%%%#",
".%%%%**%%%%%%**%%**%%%%%%**%%**%%%%%%**%%%%%%%%%%%%%%%%%%#",
".%%%%*%%****%%*%%*%%****%%*%%*%%****%%*%%%%%%%%%%&%%%&%%%#",
".%%%%%%******%%%%%%******%%%%%%******%%%%%%%%%%%%&%%%&%%%#",
".%%%%*%%%%%%%%*%%*%%%%%%%%*%%*%%%%%%%%*%%%%%%%%%%&%%%&%%%#",
".%%%%**%%%%%%**%%**%%%%%%**%%**%%%%%%**%%%%%%%%%%&&&&&%%%#",
".%%%%**%%%%%%**%%**%%%%%%**%%**%%%%%%**%%%%%%%%%%%%%%%%%%#",
".%%%%**%%%%%%**%%**%%%%%%**%%**%%%%%%**%%.%%%.%%%%%%%%%%%#",
".%%%%**%%%%%%**%%**%%%%%%**%%**%%%%%%**%%.%%.%%%%%%%%%%%%#",
".%%%%**%%%%%%**%%**%%%%%%**%%**%%%%%%**%%...%%%%%%%%%%%%%#",
".%%%%**%%%%%%**%%**%%%%%%**%%**%%%%%%**%%.%.%%%%%%%%%%%%%#",
".%%%%*%%****%%*%%*%%****%%*%%*%%****%%*%%.%%.%%%%%%%%%%%%#",
".%%%%%%******%%%%%%******%%%%%%******%%%%.%%%.%%%%%%%%%%%#",
".%%%%%%%%%%%%%%%%%%%%%%%%%%%%%%%%%%%%%%%%%%%%%%%%%%%%%%%%#",
".%%%%=================================================%%%#",
".%%%%=================================================*%%#",
".%%%%%*************************************************%%#",
".%%%%%%%%%%%%%%%%%%%%%%%%%%%%%%%%%%%%%%%%%%%%%%%%%%%%%%%%#",
".%%%%%%%%%%%%%%%%%%%%%%%%%%%%%%%%%%%%%%%%%%%%%%%%&&&&&%%%#",
".%%%%%%%%%%%%%%%%%%%%%%%%%%%%%%%%%%%%%%%%%%%%%%%%&%%%%%%%#",
".%%%%%%******%%%%%%******%%%%%%******%%%%....%%%%&&&&&%%%#",
".%%%%*%%****%%*%%*%%****%%*%%*%%****%%*%%.%%.%%%%%%%%&%%%#",
".%%%%**%%%%%%**%%**%%%%%%**%%**%%%%%%**%%.%%.%%%%&&&&&%%%#",
".%%%%**%%%%%%**%%**%%%%%%**%%**%%%%%%**%%....%%%%%%%%%%%%#",
".%%%%**%%%%%%**%%**%%%%%%**%%**%%%%%%**%%%%%%%%%%&%%%&%%%#",
".%%%%**%%%%%%**%%**%%%%%%**%%**%%%%%%**%%%%%%%%%%&%%%&%%%#",
".%%%%**%%%%%%**%%**%%%%%%**%%**%%%%%%**%%%%%%%%%%&&&&&%%%#",
".%%%%**%%%%%%**%%**%%%%%%**%%**%%%%%%**%%%%%%%%%%%%%%&%%%#",
".%%%%**%%%%%%**%%**%%%%%%**%%**%%%%%%**%%%%%%%%%%&&&&&%%%#",
".%%%%*%%****%%*%%*%%****%%*%%*%%****%%*%%%%%%%%%%%%%%%%%%#",
".%%%%%%******%%%%%%******%%%%%%******%%%%%%%%%%%%&&&&&%%%#",
".%%%%*%%%%%%%%*%%*%%%%%%%%*%%*%%%%%%%%*%%%%%%%%%%&%%%%%%%#",
".%%%%**%%%%%%**%%**%%%%%%**%%**%%%%%%**%%%%%%%%%%&&&&&%%%#",
".%%%%**%%%%%%**%%**%%%%%%**%%**%%%%%%**%%%%%%%%%%%%%%&%%%#",
".%%%%**%%%%%%**%%**%%%%%%**%%**%%%%%%**%%.%%%.%%%&&&&&%%%#",
".%%%%**%%%%%%**%%**%%%%%%**%%**%%%%%%**%%.%%.%%%%%%%%%%%%#",
".%%%%**%%%%%%**%%**%%%%%%**%%**%%%%%%**%%...%%%%%%%%%%%%%#",
".%%%%**%%%%%%**%%**%%%%%%**%%**%%%%%%**%%.%.%%%%%%%%%%%%%#",
".%%%%*%%****%%*%%*%%****%%*%%*%%****%%*%%.%%.%%%%%%%%%%%%#",
".%%%%%%******%%%%%%******%%%%%%******%%%%.%%%.%%%%%%%%%%%#",
".%%%%%%%%%%%%%%%%%%%%%%%%%%%%%%%%%%%%%%%%%%%%%%%%%%%%%%%%#",
".%%%%%%%%%%%%%%%%%%%%%%%%%%%%%%%%%%%%%%%%%%%%%%%%%%%%%%%%#",
" .%%%%%%%%%%%%%%%%%%%%%%%%%%%%%%%%%%%%%%%%%%%%%%%%%%%%%%# ",
"  ######################################################  "};
